<svg xmlns="http://www.w3.org/2000/svg" width="448" height="240" class="svgbob">
  <style>.svgbob line, .svgbob path, .svgbob circle, .svgbob rect, .svgbob polygon {
  stroke: black;
  stroke-width: 2;
  stroke-opacity: 1;
  fill-opacity: 1;
  stroke-linecap: round;
  stroke-linejoin: miter;
}

.svgbob text {
  white-space: pre;
  fill: black;
  font-family: Iosevka Fixed, monospace;
  font-size: 14px;
}

.svgbob rect.backdrop {
  stroke: none;
  fill: white;
}

.svgbob .broken {
  stroke-dasharray: 8;
}

.svgbob .filled {
  fill: black;
}

.svgbob .bg_filled {
  fill: white;
  stroke-width: 1;
}

.svgbob .nofill {
  fill: white;
}

.svgbob .end_marked_arrow {
  marker-end: url(#arrow);
}

.svgbob .start_marked_arrow {
  marker-start: url(#arrow);
}

.svgbob .end_marked_diamond {
  marker-end: url(#diamond);
}

.svgbob .start_marked_diamond {
  marker-start: url(#diamond);
}

.svgbob .end_marked_circle {
  marker-end: url(#circle);
}

.svgbob .start_marked_circle {
  marker-start: url(#circle);
}

.svgbob .end_marked_open_circle {
  marker-end: url(#open_circle);
}

.svgbob .start_marked_open_circle {
  marker-start: url(#open_circle);
}

.svgbob .end_marked_big_open_circle {
  marker-end: url(#big_open_circle);
}

.svgbob .start_marked_big_open_circle {
  marker-start: url(#big_open_circle);
}

</style>
  <defs>
    <marker id="arrow" viewBox="-2 -2 8 8" refX="4" refY="2" markerWidth="7" markerHeight="7" orient="auto-start-reverse">
      <polygon points="0,0 0,4 4,2 0,0"></polygon>
    </marker>
    <marker id="diamond" viewBox="-2 -2 8 8" refX="4" refY="2" markerWidth="7" markerHeight="7" orient="auto-start-reverse">
      <polygon points="0,2 2,0 4,2 2,4 0,2"></polygon>
    </marker>
    <marker id="circle" viewBox="0 0 8 8" refX="4" refY="4" markerWidth="7" markerHeight="7" orient="auto-start-reverse">
      <circle cx="4" cy="4" r="2" class="filled"></circle>
    </marker>
    <marker id="open_circle" viewBox="0 0 8 8" refX="4" refY="4" markerWidth="7" markerHeight="7" orient="auto-start-reverse">
      <circle cx="4" cy="4" r="2" class="bg_filled"></circle>
    </marker>
    <marker id="big_open_circle" viewBox="0 0 8 8" refX="4" refY="4" markerWidth="7" markerHeight="7" orient="auto-start-reverse">
      <circle cx="4" cy="4" r="3" class="bg_filled"></circle>
    </marker>
  </defs>
  <rect class="backdrop" x="0" y="0" width="448" height="240"></rect>
  <text x="162" y="12" >document</text>
  <line x1="196" y1="16" x2="196" y2="32" class="solid"></line>
  <line x1="196" y1="48" x2="196" y2="64" class="solid"></line>
  <line x1="100" y1="112" x2="100" y2="128" class="solid"></line>
  <line x1="292" y1="112" x2="292" y2="160" class="solid"></line>
  <text x="162" y="44" >&lt;html&gt;</text>
  <text x="66" y="108" >&lt;head&gt;</text>
  <text x="258" y="108" >&lt;body&gt;</text>
  <text x="66" y="140" >&lt;title&gt;</text>
  <text x="170" y="172" >&lt;h1&gt;</text>
  <text x="274" y="172" >&lt;p&gt;</text>
  <text x="362" y="172" >&lt;ul&gt;</text>
  <text x="314" y="236" >&lt;li&gt;</text>
  <text x="410" y="236" >&lt;li&gt;</text>
  <g>
    <line x1="100" y1="72" x2="292" y2="72" class="solid"></line>
    <line x1="100" y1="72" x2="100" y2="96" class="solid"></line>
    <line x1="292" y1="72" x2="292" y2="96" class="solid"></line>
  </g>
  <g>
    <line x1="196" y1="136" x2="388" y2="136" class="solid"></line>
    <line x1="196" y1="136" x2="196" y2="160" class="solid"></line>
    <line x1="388" y1="136" x2="388" y2="160" class="solid"></line>
  </g>
  <g>
    <line x1="388" y1="176" x2="388" y2="200" class="solid"></line>
    <line x1="340" y1="200" x2="436" y2="200" class="solid"></line>
    <line x1="340" y1="200" x2="340" y2="224" class="solid"></line>
    <line x1="436" y1="200" x2="436" y2="224" class="solid"></line>
  </g>
</svg>